Coordinates
version=1
nRows=5
nColumns=42
inDegrees=yes

Units are S.I. units (second, meters, Newtons, ...)
If the header above contains a line with 'inDegrees', this indicates whether rotational values are in degrees (yes) or radians (no).

endheader
time	pelvis_tilt	pelvis_list	pelvis_rotation	pelvis_tx	pelvis_ty	pelvis_tz	hip_flexion_r	hip_adduction_r	hip_rotation_r	knee_angle_r	knee_adduction_r	knee_angle_r_beta	ankle_angle_r	subtalar_angle_r	mtp_angle_r	hip_flexion_l	hip_adduction_l	hip_rotation_l	knee_angle_l	knee_adduction_l	knee_angle_l_beta	ankle_angle_l	subtalar_angle_l	mtp_angle_l	lumbar_extension	lumbar_bending	lumbar_rotation	arm_flex_r	arm_add_r	arm_rot_r	elbow_flex_r	pro_sup_r	wrist_flex_r	wrist_dev_r	arm_flex_l	arm_add_l	arm_rot_l	elbow_flex_l	pro_sup_l	wrist_flex_l	wrist_dev_l
      2.43000000	      9.66171276	     -1.41476793	      1.02791439	      0.06431920	      0.90804591	      0.24814079	    -11.61332906	      1.78269221	     -8.35121914	     17.34705548	      9.40231645	      0.30276323	     21.01258186	     16.44751847	     -7.51032128	     20.50237328	     -0.53563720	    -12.76997363	     31.74553830	     -3.28411298	      0.55406417	     11.77126075	      3.43421210	     -7.51032128	    -21.74917224	      7.14635983	     -1.33140049	     18.45402799	    -13.79272383	     -4.88429942	     33.14593278	     90.00000001	      0.00000000	      0.00000000	     -6.87743997	     -5.20754012	    -28.93488557	     39.50647435	     90.00000001	      0.00000000	      0.00000000
      2.44000000	      9.64358750	     -1.37440002	      1.18029729	      0.07127217	      0.90722905	      0.24748747	    -12.36201976	      1.67464447	     -8.28124846	     16.91568311	      9.63353296	      0.29523437	     21.35404151	     16.54842755	     -7.51005954	     20.61603801	     -0.23168659	    -13.08759086	     29.63717971	     -3.35777664	      0.51726637	     11.77184572	      4.85639528	     -7.51005954	    -21.72419027	      7.20821122	     -1.49590751	     18.77235844	    -13.77899822	     -4.49104693	     33.46292935	     90.00000001	      0.00000000	      0.00000000	     -6.88227013	     -5.17589772	    -28.95798283	     39.12178597	     90.00000001	      0.00000000	      0.00000000
      2.45000000	      9.72711839	     -1.26869314	      1.27259574	      0.07843829	      0.90650869	      0.24681406	    -13.24800943	      1.45498679	     -8.09479454	     16.46332546	      9.92458995	      0.28733924	     21.55479396	     16.58500120	     -7.50978103	     20.59558946	      0.12597648	    -13.77134320	     27.68521049	     -3.55043149	      0.48319808	     11.78907403	      6.61450605	     -7.50978103	    -21.81060630	      7.17842401	     -1.62290238	     19.00204214	    -13.79156143	     -4.01189460	     33.85029771	     90.00000001	      0.00000000	      0.00000000	     -6.92231781	     -5.12153742	    -29.03501244	     38.78549151	     90.00000001	      0.00000000	      0.00000000
      2.46000000	      9.76826825	     -1.22565550	      1.31046402	      0.08570583	      0.90558363	      0.24620769	    -14.03275525	      1.35132253	     -7.72217268	     16.06287570	     10.12882328	      0.28035007	     21.61170985	     16.37025630	     -7.50934084	     20.73591993	      0.37063766	    -14.83736939	     26.13318805	     -3.89062508	      0.45611018	     11.99995548	      8.91999335	     -7.50934084	    -21.84139337	      7.19514276	     -1.68844711	     19.16925410	    -13.84789295	     -3.42310112	     34.30168907	     90.00000001	      0.00000000	      0.00000000	     -7.01271184	     -5.03654943	    -29.13547375	     38.54450628	     90.00000001	      0.00000000	      0.00000000
      2.47000000	      9.56209588	     -1.34204971	      1.49501251	      0.09267607	      0.90408586	      0.24549917	    -14.36065931	      1.53807810	     -7.53202487	     15.97014907	     10.11000496	      0.27873168	     21.99517211	     16.23086245	     -7.50922014	     21.29105724	      0.46969060	    -14.98010262	     25.06889686	     -3.83431576	      0.43753479	     11.93108629	      9.51647292	     -7.50922014	    -21.60892418	      7.41683594	     -1.84661329	     19.35110468	    -13.77120769	     -3.27609462	     34.61592955	     90.00000001	      0.00000000	      0.00000000	     -7.08102353	     -4.95567902	    -29.10835736	     38.18150571	     90.00000001	      0.00000000	      0.00000000
